<svg width="500" height="250" viewBox="0 0 500 250" fill="none" xmlns="http://www.w3.org/2000/svg">
<path d="M446.288 134.872C443.942 137.28 440.781 138.743 437.139 139.098C436.551 139.15 435.967 139.15 435.327 139.15H427.522C425.472 139.15 424.005 137.803 424.005 135.81V113.461C424.005 111.707 425.764 110.184 427.522 110.184H435.327C435.967 110.184 436.551 110.238 437.139 110.297C440.714 110.648 443.886 112.114 446.238 114.403C448.871 117.043 450.281 120.62 450.281 124.728C450.281 128.834 448.931 132.294 446.288 134.872ZM370.454 127.364C369.983 127.952 369.223 128.191 368.281 128.191H361.126C360.192 128.191 359.48 127.952 359.135 127.364C358.665 126.718 358.665 125.955 359.135 125.076L362.768 117.63C363.18 116.805 363.887 116.279 364.707 116.279H364.765C365.521 116.279 366.228 116.805 366.642 117.63L370.337 125.076C370.809 125.955 370.809 126.718 370.454 127.364ZM288.396 119.273C286.87 120.795 284.171 121.503 280.361 121.503H269.629C268.746 121.503 267.926 121.206 267.283 120.563C266.632 119.917 266.281 119.097 266.281 118.218V113.581C266.281 111.707 267.81 110.238 269.629 110.238H280.477C284.347 110.238 286.87 110.999 288.396 112.406C289.275 113.349 289.743 114.463 289.743 115.988C289.743 117.279 289.275 118.333 288.396 119.273ZM248.221 136.046C245.578 138.69 241.942 140.212 237.952 140.212C233.907 140.212 230.271 138.69 227.631 136.046C224.815 133.229 223.234 129.242 223.234 124.844C223.234 115.925 229.392 109.416 237.952 109.416C241.883 109.416 245.522 110.884 248.16 113.581C251.035 116.396 252.558 120.444 252.558 124.844C252.558 129.242 251.035 133.229 248.221 136.046ZM212.442 119.21C211.029 120.735 208.275 121.503 204.404 121.503H193.671C192.85 121.503 191.969 121.146 191.325 120.504C190.74 119.917 190.387 119.097 190.387 118.218V113.581C190.387 111.707 191.909 110.184 193.671 110.184H204.579C208.397 110.184 211.029 110.884 212.442 112.406C213.374 113.288 213.786 114.463 213.786 115.925C213.786 117.216 213.374 118.333 212.442 119.21ZM452.222 110.238C449.466 107.476 444.648 104.195 437.139 103.729C436.551 103.729 435.967 103.672 435.327 103.672H418.317C417.02 103.672 416.088 104.784 416.088 106.25V126.894C416.088 127.896 415.676 128.364 414.969 128.655C414.151 128.947 413.149 128.655 412.449 127.896L393.089 105.602C391.451 103.729 389.222 103.318 387.872 103.904C386.873 104.317 386.29 105.251 386.41 106.542V131.763C386.41 132.818 385.823 133.286 385.228 133.465C384.468 133.581 383.649 133.173 383.241 132.231L368.4 105.894C367.465 104.432 366.17 103.556 364.765 103.436C364.648 103.371 364.53 103.371 364.41 103.371C362.884 103.495 361.596 104.372 360.775 105.894L345.525 136.397C344.706 137.983 343.181 139.15 341.005 139.15H340.423C339.601 139.15 338.724 138.802 338.075 138.274C337.427 137.625 337.138 136.753 337.138 135.87V105.954C337.138 105.308 336.845 104.784 336.432 104.317C336.021 103.904 335.437 103.613 334.789 103.613H295.729C294.257 103.613 292.851 103.904 292.208 104.195C291.856 104.372 290.333 105.138 288.16 104.317C287.05 103.961 284.465 103.556 280.535 103.613H260.648C260.004 103.613 259.419 103.904 259.013 104.317C258.536 104.784 258.366 105.308 258.366 105.954V107.712C258.366 108.769 257.952 109.535 257.132 109.888C256.197 110.356 254.903 110.12 254.136 109.416V109.359C254.024 109.238 248.81 102.849 237.952 102.729C228.336 102.674 223.646 107.888 223.646 107.954L223.524 108.068C222.063 109.124 220.124 109.238 218.834 108.068L218.481 107.6C218.364 107.6 216.076 103.556 204.641 103.613H184.754C184.111 103.613 183.524 103.904 183.113 104.317C182.699 104.784 182.47 105.308 182.47 105.954V121.266C182.47 122.086 182.056 122.673 181.295 123.084C180.292 123.671 178.831 123.728 177.893 123.143C177.893 123.143 174.665 121.559 170.382 121.559L160.529 121.503C156.778 121.503 154.142 120.735 152.613 119.21C151.381 117.982 151.263 116.689 151.263 115.988C151.263 114.699 151.909 110.238 160.708 110.238H174.783C176.071 110.238 177.07 109.238 177.07 107.954V105.894C177.07 104.608 175.783 103.613 174.727 103.613H159.768C154.018 103.613 149.332 105.374 146.337 108.365C144.17 110.476 143.05 113.288 143.05 116.396C143.05 119.273 144.047 121.735 145.867 123.671C148.801 126.606 153.963 128.251 160.411 128.251H167.452C171.207 128.251 173.964 128.947 175.371 130.477C176.424 131.475 176.662 132.585 176.662 133.409C176.662 134.816 176.133 135.986 175.254 136.868C173.786 138.391 171.089 139.098 167.22 139.098H145.222C144.576 139.098 144.047 139.329 143.58 139.801C143.167 140.27 142.88 140.856 142.88 141.499V143.492C142.88 144.139 143.167 144.671 143.58 145.138C144.047 145.55 144.576 145.781 145.222 145.781H168.213C176.133 145.781 177.893 144.315 177.893 144.315L177.952 144.259C178.831 143.668 179.889 143.553 180.886 143.791C181.588 143.904 182.117 144.259 182.409 144.671C182.761 145.194 183.931 145.841 184.754 145.841H188.096C189.39 145.841 190.387 144.783 190.387 143.492V131.527C190.387 129.713 191.909 128.251 193.671 128.251H205.287C206.868 128.251 209.159 128.191 210.391 127.952C211.97 127.716 215.199 127.249 216.015 130.177C216.194 130.828 220.065 146.84 237.952 146.84C249.159 146.84 254.024 140.27 254.024 140.212C254.615 139.329 256.08 139.041 257.076 139.386C257.893 139.629 258.366 140.212 258.366 140.976V143.492C258.366 144.139 258.536 144.671 259.013 145.138C259.419 145.55 260.004 145.841 260.648 145.841H263.996C265.228 145.841 266.281 144.783 266.281 143.492V131.527C266.281 129.713 267.81 128.251 269.568 128.251H277.134C277.426 128.251 277.718 128.251 278.009 128.3C279.537 128.599 281.064 129.59 281.825 130.884L289.099 143.612C289.743 144.843 291.567 145.841 292.91 145.841H296.55C297.077 145.841 297.486 145.55 297.72 145.079C298.007 144.491 297.9 143.791 297.486 143.021L290.622 130.828C289.689 129.183 290.622 127.364 291.975 126.37H292.151C292.328 126.25 298.007 123.496 297.9 115.871C297.9 114.051 297.781 113.581 297.781 113.64C297.545 112.705 297.72 111.937 298.187 111.295C298.66 110.648 299.424 110.238 300.36 110.238H304.821C305.639 110.238 306.524 110.648 307.106 111.175C307.755 111.825 308.101 112.705 308.101 113.581V143.492C308.101 144.139 308.282 144.671 308.749 145.138C309.218 145.55 309.805 145.841 310.389 145.841H313.736C315.023 145.841 316.023 144.783 316.023 143.492V113.581C316.023 111.766 317.547 110.238 319.362 110.238H325.814C326.694 110.238 327.578 110.648 328.218 111.175C328.75 111.825 329.101 112.705 329.101 113.581V143.492C329.101 144.139 329.397 144.671 329.865 145.138C330.275 145.55 330.859 145.841 331.503 145.841H362.064C363.354 145.841 364.354 144.783 364.354 143.492V141.559C364.354 140.916 364.118 140.328 363.707 139.92C363.18 139.449 362.592 139.15 362.064 139.15H356.312C354.91 139.098 354.262 138.156 354.262 137.335C354.319 136.162 355.322 135.052 357.197 135.052L364.765 134.991L371.51 134.934C373.443 134.934 375.088 135.87 376.142 137.744L379.603 143.668C380.126 144.906 382.184 145.781 383.533 145.781L391.04 145.841C392.334 145.841 393.389 144.783 393.389 143.492V122.561C393.389 121.735 393.741 121.091 394.499 120.858C395.323 120.504 396.373 120.858 397.017 121.614C397.017 121.614 415.796 143.321 415.796 143.26C417.606 145.254 420.953 145.841 422.656 145.841H435.327C435.967 145.841 436.551 145.841 437.139 145.781C450.924 144.962 458.372 134.58 458.372 124.844C458.372 119.509 456.145 114.228 452.222 110.238Z" fill="#ED1C24"/>
<path d="M127.972 120.782C127.502 120.782 127.034 120.782 126.562 120.902C122.105 121.49 118.353 121.602 113.718 121.37C102.927 120.607 94.0112 117.791 90.9623 113.982C90.0833 112.804 89.6722 111.694 89.9042 110.464C90.4309 107.295 94.0698 106.237 97.7063 105.239C100.93 104.305 103.984 103.358 104.099 101.077C104.099 100.608 103.863 100.141 103.515 99.7885C101.283 97.7326 93.6547 97.8522 89.9042 98.1998C76.006 99.9611 66.6202 104.127 65.4433 109.111C65.0933 110.516 65.4433 112.045 66.5616 113.568C71.0209 119.612 86.0333 124.42 103.984 125.594C112.61 126.121 122.575 125.594 127.91 124.592C129.785 124.128 130.26 123.659 130.497 122.78C130.552 122.428 130.497 122.073 130.26 121.782C129.847 121.194 128.967 120.846 127.972 120.782Z" fill="#ED1C24"/>
<path d="M68.5018 124.011C59.9355 123.426 49.9644 124.011 44.6285 125.066C42.7508 125.418 42.221 126.008 42.0476 126.768C41.9296 127.123 42.0476 127.534 42.221 127.766C42.6922 128.354 43.515 128.706 44.5121 128.825C45.0403 128.881 45.4465 128.825 45.9779 128.706C50.3192 128.059 54.1861 127.942 58.7659 128.241C69.6128 128.937 78.5283 131.81 81.5185 135.573C82.4586 136.743 82.8118 137.855 82.6376 139.089C82.111 142.313 78.4697 143.311 74.834 144.425C71.6085 145.301 68.5018 146.183 68.4424 148.469C68.4424 149.004 68.5572 149.411 69.0276 149.766C71.2496 151.816 78.8807 151.697 82.6376 151.344C96.4772 149.643 105.863 145.483 107.096 140.554C107.445 139.032 107.096 137.502 105.922 136.037C101.528 129.936 86.4475 125.126 68.5018 124.011Z" fill="#ED1C24"/>
<path d="M446.288 135.3C443.942 137.704 440.781 139.17 437.139 139.522C436.551 139.581 435.967 139.581 435.327 139.581H427.522C425.472 139.581 424.005 138.235 424.005 136.238V113.889C424.005 112.138 425.764 110.608 427.522 110.608H435.327C435.967 110.608 436.551 110.665 437.139 110.725C440.714 111.076 443.886 112.538 446.238 114.833C448.871 117.471 450.281 121.048 450.281 125.151C450.281 129.259 448.931 132.718 446.288 135.3ZM370.454 127.796C369.983 128.38 369.223 128.616 368.281 128.616H361.126C360.192 128.616 359.48 128.38 359.135 127.796C358.665 127.145 358.665 126.384 359.135 125.508L362.768 118.056C363.18 117.232 363.887 116.708 364.707 116.708H364.765C365.521 116.708 366.228 117.232 366.642 118.056L370.337 125.508C370.809 126.384 370.809 127.145 370.454 127.796ZM288.396 119.704C286.87 121.227 284.171 121.93 280.361 121.93H269.629C268.746 121.93 267.926 121.635 267.283 120.991C266.632 120.341 266.281 119.525 266.281 118.643V114.008C266.281 112.138 267.81 110.665 269.629 110.665H280.477C284.347 110.665 286.87 111.431 288.396 112.838C289.275 113.776 289.743 114.89 289.743 116.411C289.743 117.707 289.275 118.761 288.396 119.704ZM248.221 136.477C245.578 139.114 241.942 140.64 237.952 140.64C233.907 140.64 230.271 139.114 227.631 136.477C224.815 133.657 223.234 129.67 223.234 125.272C223.234 116.353 229.392 109.847 237.952 109.847C241.883 109.847 245.522 111.311 248.16 114.008C251.035 116.826 252.558 120.875 252.558 125.272C252.558 129.67 251.035 133.657 248.221 136.477ZM212.442 119.64C211.029 121.163 208.275 121.93 204.404 121.93H193.671C192.85 121.93 191.969 121.578 191.325 120.935C190.74 120.341 190.387 119.525 190.387 118.643V114.008C190.387 112.138 191.909 110.608 193.671 110.608H204.579C208.397 110.608 211.029 111.311 212.442 112.838C213.374 113.713 213.786 114.89 213.786 116.353C213.786 117.647 213.374 118.761 212.442 119.64ZM452.222 110.665C449.466 107.911 444.648 104.621 437.139 104.156C436.551 104.156 435.967 104.097 435.327 104.097H418.317C417.02 104.097 416.088 105.212 416.088 106.677V127.322C416.088 128.324 415.676 128.791 414.969 129.083C414.151 129.375 413.149 129.083 412.449 128.324L393.089 106.03C391.451 104.156 389.222 103.744 387.872 104.33C386.873 104.741 386.29 105.682 386.41 106.972V132.191C386.41 133.245 385.823 133.716 385.228 133.896C384.468 134.009 383.649 133.601 383.241 132.663L368.4 106.325C367.465 104.86 366.17 103.981 364.765 103.865C364.648 103.801 364.53 103.801 364.41 103.801C362.884 103.921 361.596 104.8 360.775 106.325L345.525 136.825C344.706 138.411 343.181 139.581 341.005 139.581H340.423C339.601 139.581 338.724 139.23 338.075 138.695C337.427 138.056 337.138 137.18 337.138 136.301V106.382C337.138 105.741 336.845 105.212 336.432 104.741C336.021 104.33 335.437 104.038 334.789 104.038H295.729C294.257 104.038 292.851 104.33 292.208 104.621C291.856 104.8 290.333 105.563 288.16 104.741C287.05 104.392 284.465 103.981 280.535 104.038H260.648C260.004 104.038 259.419 104.33 259.013 104.741C258.536 105.212 258.366 105.741 258.366 106.382V108.143C258.366 109.201 257.952 109.962 257.132 110.314C256.197 110.784 254.903 110.552 254.136 109.847V109.789C254.024 109.665 248.81 103.274 237.952 103.161C228.336 103.102 223.646 108.32 223.646 108.381L223.524 108.495C222.063 109.554 220.124 109.665 218.834 108.495L218.481 108.028C218.364 108.028 216.076 103.981 204.641 104.038H184.754C184.111 104.038 183.524 104.33 183.113 104.741C182.699 105.212 182.47 105.741 182.47 106.382V121.687C182.47 122.514 182.056 123.104 181.295 123.515C180.292 124.097 178.831 124.154 177.893 123.572C177.893 123.572 174.665 121.989 170.382 121.989L160.529 121.93C156.778 121.93 154.142 121.163 152.613 119.64C151.381 118.41 151.263 117.12 151.263 116.411C151.263 115.12 151.909 110.665 160.708 110.665H174.783C176.071 110.665 177.07 109.665 177.07 108.381V106.325C177.07 105.036 175.783 104.038 174.727 104.038H159.768C154.018 104.038 149.332 105.802 146.337 108.79C144.17 110.9 143.05 113.713 143.05 116.826C143.05 119.704 144.047 122.162 145.867 124.097C148.801 127.03 153.963 128.672 160.411 128.672H167.452C171.207 128.672 173.964 129.375 175.371 130.904C176.424 131.899 176.662 133.018 176.662 133.837C176.662 135.246 176.133 136.418 175.254 137.296C173.786 138.815 171.089 139.522 167.22 139.522H145.222C144.576 139.522 144.047 139.761 143.58 140.232C143.167 140.699 142.88 141.28 142.88 141.924V143.924C142.88 144.571 143.167 145.095 143.58 145.566C144.047 145.981 144.576 146.213 145.222 146.213H168.213C176.133 146.213 177.893 144.744 177.893 144.744L177.952 144.687C178.831 144.1 179.889 143.983 180.886 144.215C181.588 144.336 182.117 144.687 182.409 145.095C182.761 145.622 183.931 146.273 184.754 146.273H188.096C189.39 146.273 190.387 145.215 190.387 143.924V131.959C190.387 130.137 191.909 128.672 193.671 128.672H205.287C206.868 128.672 209.159 128.616 210.391 128.38C211.97 128.144 215.199 127.677 216.015 130.609C216.194 131.256 220.065 147.268 237.952 147.268C249.159 147.268 254.024 140.699 254.024 140.64C254.615 139.761 256.08 139.465 257.076 139.817C257.893 140.052 258.366 140.64 258.366 141.4V143.924C258.366 144.571 258.536 145.095 259.013 145.566C259.419 145.981 260.004 146.273 260.648 146.273H263.996C265.228 146.273 266.281 145.215 266.281 143.924V131.959C266.281 130.137 267.81 128.672 269.568 128.672H277.134C277.426 128.672 277.718 128.672 278.009 128.732C279.537 129.023 281.064 130.022 281.825 131.312L289.099 144.04C289.743 145.27 291.567 146.273 292.91 146.273H296.55C297.077 146.273 297.486 145.981 297.72 145.506C298.007 144.923 297.9 144.215 297.486 143.453L290.622 131.256C289.689 129.611 290.622 127.796 291.975 126.798H292.151C292.328 126.674 298.007 123.923 297.9 116.298C297.9 114.478 297.781 114.008 297.781 114.068C297.545 113.129 297.72 112.367 298.187 111.722C298.66 111.076 299.424 110.665 300.36 110.665H304.821C305.639 110.665 306.524 111.076 307.106 111.603C307.755 112.25 308.101 113.129 308.101 114.008V143.924C308.101 144.571 308.282 145.095 308.749 145.566C309.218 145.981 309.805 146.273 310.389 146.273H313.736C315.023 146.273 316.023 145.215 316.023 143.924V114.008C316.023 112.192 317.547 110.665 319.362 110.665H325.814C326.694 110.665 327.578 111.076 328.218 111.603C328.75 112.25 329.101 113.129 329.101 114.008V143.924C329.101 144.571 329.397 145.095 329.865 145.566C330.275 145.981 330.859 146.273 331.503 146.273H362.064C363.354 146.273 364.354 145.215 364.354 143.924V141.986C364.354 141.343 364.118 140.752 363.707 140.34C363.18 139.877 362.592 139.581 362.064 139.581H356.312C354.91 139.522 354.262 138.583 354.262 137.764C354.319 136.59 355.322 135.479 357.197 135.479L364.765 135.418L371.51 135.359C373.443 135.359 375.088 136.301 376.142 138.171L379.603 144.1C380.126 145.334 382.184 146.213 383.533 146.213L391.04 146.273C392.334 146.273 393.389 145.215 393.389 143.924V122.984C393.389 122.162 393.741 121.515 394.499 121.283C395.323 120.935 396.373 121.283 397.017 122.046C397.017 122.046 415.796 143.751 415.796 143.688C417.606 145.682 420.953 146.273 422.656 146.273H435.327C435.967 146.273 436.551 146.273 437.139 146.213C450.924 145.39 458.372 135.008 458.372 125.272C458.372 119.937 456.145 114.659 452.222 110.665Z" fill="#ED1C24"/>
<path d="M127.972 121.246C127.502 121.246 127.034 121.246 126.562 121.362C122.105 121.949 118.353 122.065 113.718 121.832C102.927 121.066 94.0112 118.25 90.9623 114.44C90.0833 113.264 89.6722 112.157 89.9042 110.919C90.4309 107.754 94.0698 106.697 97.7063 105.701C100.93 104.761 103.984 103.821 104.099 101.539C104.099 101.066 103.863 100.597 103.515 100.252C101.283 98.1908 93.6547 98.308 89.9042 98.6588C76.006 100.421 66.6202 104.586 65.4433 109.572C65.0933 110.977 65.4433 112.507 66.5616 114.028C71.0209 120.072 86.0333 124.883 103.984 126.058C112.61 126.582 122.575 126.058 127.91 125.056C129.785 124.585 130.26 124.116 130.497 123.236C130.552 122.888 130.497 122.533 130.26 122.244C129.847 121.653 128.967 121.302 127.972 121.246Z" fill="#ED1C24"/>
<path d="M68.5018 124.469C59.9355 123.883 49.9644 124.469 44.6285 125.524C42.7508 125.871 42.221 126.459 42.0476 127.226C41.9296 127.573 42.0476 127.985 42.221 128.221C42.6922 128.807 43.515 129.162 44.5121 129.275C45.0403 129.331 45.4465 129.275 45.9779 129.162C50.3192 128.512 54.1861 128.397 58.7659 128.688C69.6128 129.391 78.5283 132.267 81.5185 136.023C82.4586 137.196 82.8118 138.307 82.6376 139.538C82.111 142.77 78.4697 143.768 74.834 144.879C71.6085 145.755 68.5018 146.634 68.4424 148.922C68.4424 149.45 68.5572 149.861 69.0276 150.216C71.2496 152.27 78.8807 152.15 82.6376 151.795C96.4772 150.096 105.863 145.937 107.096 141.005C107.445 139.482 107.096 137.953 105.922 136.493C101.528 130.39 86.4475 125.58 68.5018 124.469Z" fill="#ED1C24"/>
</svg>
